<svg width="16" height="18" viewBox="0 0 16 18" fill="white" xmlns="http://www.w3.org/2000/svg">
    <path d="M10.4182 15.2309C10.4109 15.2309 10.4037 15.2309 10.3964 15.2306C10.0142 15.2188 9.71411 14.8993 9.72554 14.5171L9.9803 6.20946C9.99207 5.8273 10.3026 5.52373 10.6937 5.53861C11.0759 5.55038 11.376 5.86988 11.3646 6.25203L11.1098 14.5597C11.0984 14.935 10.7907 15.2309 10.4182 15.2309Z"/>
    <path d="M5.16083 15.2306C4.78837 15.2306 4.48064 14.9346 4.46922 14.5597L4.21445 6.25203C4.20268 5.86988 4.50279 5.55038 4.88529 5.53861C5.26883 5.52373 5.58695 5.82696 5.59872 6.20946L5.85348 14.5171C5.86525 14.8993 5.56514 15.2188 5.18264 15.2306C5.17537 15.2306 5.1681 15.2306 5.16083 15.2306Z"/>
    <path d="M7.96257 15.2314C7.58042 15.2314 7.27026 14.9212 7.27026 14.5391V6.23137C7.27026 5.84922 7.58042 5.53906 7.96257 5.53906C8.34473 5.53906 8.65488 5.84922 8.65488 6.23137V14.5391C8.65488 14.9216 8.34507 15.2314 7.96257 15.2314Z"/>
    <path d="M12.1168 17.9998H3.11614C2.73398 17.9998 2.42383 17.6897 2.42383 17.3075C2.42383 16.9254 2.73398 16.6152 3.11614 16.6152H12.1168C12.499 16.6152 12.8091 16.9254 12.8091 17.3075C12.8091 17.6897 12.4993 17.9998 12.1168 17.9998Z"/>
    <path d="M12.8088 17.3421C12.7971 17.3421 12.7856 17.3417 12.7735 17.3414C12.3917 17.3223 12.0975 16.9973 12.1169 16.6151L12.7763 3.42669C12.7957 3.04488 13.1197 2.75584 13.5025 2.77003C13.8843 2.78907 14.1786 3.11411 14.1592 3.49626L13.4998 16.6847C13.4814 17.0544 13.1758 17.3421 12.8088 17.3421Z"/>
    <path d="M12.1169 17.9997C11.7347 17.9997 11.4246 17.6895 11.4246 17.3074C11.4246 16.9252 11.7347 16.6151 12.1169 16.6151H12.1176C12.1369 16.2329 12.4599 15.9342 12.8434 15.9584C13.2253 15.9774 13.5191 16.3025 13.4998 16.6846C13.4631 17.4219 12.8556 17.9997 12.1169 17.9997Z"/>
    <path d="M2.4241 17.3427C2.05752 17.3427 1.75187 17.055 1.73317 16.685L1.07375 3.49652C1.05471 3.11437 1.3486 2.78967 1.7304 2.77029C2.11567 2.75264 2.43725 3.04548 2.45664 3.42694L3.11606 16.6157C3.1351 16.9979 2.84121 17.3226 2.4594 17.342C2.44729 17.3423 2.43552 17.3427 2.4241 17.3427Z"/>
    <path d="M3.11618 18.0004C2.37749 18.0004 1.76999 17.4227 1.7333 16.685C1.71426 16.3029 2.00814 15.9782 2.38995 15.9588C2.77487 15.9408 3.0968 16.2336 3.11618 16.6154V16.6161C3.49834 16.6161 3.80849 16.9259 3.80849 17.3081C3.80849 17.6903 3.49834 18.0004 3.11618 18.0004Z"/>
    <path d="M10.3854 4.15392C10.0033 4.15392 9.69312 3.84377 9.69312 3.46161V1.38469C9.69312 1.00254 10.0033 0.692383 10.3854 0.692383C10.7676 0.692383 11.0777 1.00254 11.0777 1.38469V3.46161C11.0777 3.84411 10.7676 4.15392 10.3854 4.15392Z"/>
    <path d="M4.84685 4.15392C4.46469 4.15392 4.15454 3.84377 4.15454 3.46161V1.38469C4.15454 1.00254 4.46469 0.692383 4.84685 0.692383C5.229 0.692383 5.53916 1.00254 5.53916 1.38469V3.46161C5.53916 3.84411 5.229 4.15392 4.84685 4.15392Z"/>
    <path d="M14.5398 4.15415H0.692308C0.310154 4.15415 0 3.84399 0 3.46184C0 3.07969 0.310154 2.76953 0.692308 2.76953H14.5402C14.9223 2.76953 15.2325 3.07969 15.2325 3.46184C15.2325 3.84399 14.9223 4.15415 14.5398 4.15415Z"/>
    <path d="M4.8465 2.07692C4.46435 2.07692 4.15454 1.76677 4.15454 1.38462C4.15454 0.621 4.77554 0 5.53916 0C5.92131 0 6.23146 0.310154 6.23146 0.692308C6.23146 1.07446 5.92131 1.38462 5.53916 1.38462H5.53846C5.53846 1.76712 5.229 2.07692 4.8465 2.07692Z"/>
    <path d="M9.69296 1.38462H5.53911C5.15696 1.38462 4.8468 1.07446 4.8468 0.692308C4.8468 0.310154 5.15696 0 5.53911 0H9.69296C10.0751 0 10.3853 0.310154 10.3853 0.692308C10.3853 1.07446 10.0751 1.38462 9.69296 1.38462Z"/>
    <path d="M10.3853 2.07692C10.0032 2.07692 9.69304 1.76677 9.69304 1.38462V1.38392C9.31089 1.38392 9.00073 1.07446 9.00073 0.691961C9.00073 0.309808 9.31089 0 9.69304 0C10.4567 0 11.0777 0.621 11.0777 1.38462C11.0777 1.76712 10.7675 2.07692 10.3853 2.07692Z"/>
</svg>